<svg width="24" height="24" viewBox="0 0 24 24" fill="none" xmlns="http://www.w3.org/2000/svg">
<path d="M22.3911 1.79568C22.3825 1.75422 22.3623 1.71606 22.3328 1.68568C22.3034 1.65529 22.2658 1.63394 22.2247 1.62412C19.4792 0.952865 13.1356 3.3449 9.69872 6.78037C9.08572 7.38841 8.52689 8.04872 8.02856 8.7538C6.96872 8.66005 5.90887 8.73833 5.00559 9.13208C2.457 10.2538 1.71497 13.1807 1.50825 14.4397C1.49652 14.5087 1.50095 14.5793 1.52117 14.6463C1.54139 14.7132 1.57686 14.7745 1.6248 14.8254C1.67273 14.8763 1.73181 14.9153 1.7974 14.9395C1.86299 14.9637 1.93329 14.9723 2.00278 14.9647L6.09544 14.5133C6.09836 14.8219 6.11698 15.1301 6.15122 15.4368C6.17181 15.6497 6.26635 15.8488 6.41841 15.9993L8.00325 17.5804C8.15391 17.7322 8.35285 17.8267 8.56575 17.8476C8.8707 17.8817 9.17719 17.9003 9.48403 17.9033L9.03497 21.9908C9.02748 22.0603 9.03618 22.1306 9.0604 22.1961C9.08462 22.2616 9.12369 22.3207 9.17455 22.3686C9.22541 22.4165 9.28668 22.452 9.35355 22.4722C9.42042 22.4925 9.49107 22.497 9.55997 22.4854C10.8167 22.2838 13.7487 21.5418 14.8639 18.9932C15.2576 18.0899 15.3383 17.0352 15.2473 15.9805C15.9541 15.4822 16.6161 14.9232 17.2259 14.3099C20.6736 10.8796 23.052 4.67755 22.3911 1.79568ZM13.7862 10.2177C13.4714 9.9031 13.257 9.50219 13.17 9.06569C13.0831 8.6292 13.1276 8.17672 13.2978 7.7655C13.4681 7.35428 13.7565 7.00279 14.1265 6.75549C14.4965 6.5082 14.9316 6.3762 15.3767 6.3762C15.8218 6.3762 16.2568 6.5082 16.6269 6.75549C16.9969 7.00279 17.2853 7.35428 17.4556 7.7655C17.6258 8.17672 17.6703 8.6292 17.5833 9.06569C17.4964 9.50219 17.282 9.9031 16.9672 10.2177C16.7584 10.4268 16.5105 10.5926 16.2376 10.7058C15.9647 10.8189 15.6721 10.8772 15.3767 10.8772C15.0813 10.8772 14.7887 10.8189 14.5158 10.7058C14.2429 10.5926 13.995 10.4268 13.7862 10.2177Z" fill="#15123F"/>
<path d="M7.89564 18.7238C7.63873 18.9812 7.22664 19.0815 6.73063 19.1673C5.61625 19.3572 4.6322 18.3942 4.83239 17.2677C4.90881 16.8406 5.13478 16.2419 5.27542 16.1013C5.30616 16.0711 5.32662 16.0321 5.3339 15.9896C5.34118 15.9472 5.3349 15.9035 5.31595 15.8649C5.29701 15.8262 5.26636 15.7945 5.22837 15.7742C5.19038 15.754 5.14697 15.7462 5.1043 15.752C4.48113 15.8282 3.90138 16.1108 3.45735 16.5546C2.35516 17.6577 2.25108 21.751 2.25108 21.751C2.25108 21.751 6.34667 21.6469 7.44886 20.5438C7.89407 20.1001 8.17696 19.5195 8.25194 18.8954C8.26929 18.6994 8.03066 18.5827 7.89564 18.7238Z" fill="#15123F"/>
</svg>
