<?xml version="1.0" encoding="UTF-8"?>
<svg id="Calque_1" data-name="Calque 1" xmlns="http://www.w3.org/2000/svg" viewBox="0 0 24.82 26.79">
  <defs>
    <style>
      .cls-1 {
        fill: #141227;
      }
    </style>
  </defs>
  <path class="cls-1" d="m24.4,1.62s-.03-.09-.07-.13c-.03-.04-.08-.06-.12-.07-3.17-.77-10.49,1.99-14.45,5.95-.71.7-1.35,1.46-1.93,2.28-1.22-.11-2.45-.02-3.49.44C1.4,11.38.54,14.75.3,16.21c-.01.08,0,.16.01.24.02.08.06.15.12.21.06.06.12.1.2.13.08.03.16.04.24.03l4.72-.52c0,.36.02.71.06,1.07.02.25.13.48.31.65l1.83,1.82c.17.18.4.28.65.31.35.04.71.06,1.06.06l-.52,4.72c0,.08,0,.16.03.24s.07.14.13.2c.06.06.13.1.21.12.08.02.16.03.24.02,1.45-.23,4.83-1.09,6.12-4.03.45-1.04.55-2.26.44-3.48.82-.57,1.58-1.22,2.28-1.93,3.98-3.96,6.72-11.11,5.96-14.44Zm-9.93,9.72c-.36-.36-.61-.83-.71-1.33-.1-.5-.05-1.03.15-1.5.2-.47.53-.88.96-1.17.43-.29.93-.44,1.44-.44s1.02.15,1.44.44c.43.29.76.69.96,1.17.2.47.25,1,.15,1.5-.1.5-.35.97-.71,1.33-.24.24-.53.43-.84.56-.31.13-.65.2-.99.2s-.68-.07-.99-.2c-.31-.13-.6-.32-.84-.56Z"/>
  <path class="cls-1" d="m7.67,21.15c-.3.3-.77.41-1.34.51-1.29.22-2.42-.89-2.19-2.19.09-.49.35-1.18.51-1.35.04-.03.06-.08.07-.13,0-.05,0-.1-.02-.14-.02-.04-.06-.08-.1-.1-.04-.02-.09-.03-.14-.03-.72.09-1.39.41-1.9.93-1.27,1.27-1.39,6-1.39,6,0,0,4.73-.12,6-1.39.51-.51.84-1.18.93-1.9.02-.23-.26-.36-.41-.2Z"/>
</svg>