<svg width="25" height="27" viewBox="0 0 25 27" fill="none" xmlns="http://www.w3.org/2000/svg">
<g clip-path="url(#clip0_5020_446)">
<path d="M24.4 1.62018C24.4 1.62018 24.37 1.53018 24.33 1.49018C24.3 1.45018 24.25 1.43018 24.21 1.42018C21.04 0.650185 13.72 3.41018 9.76004 7.37018C9.05004 8.07018 8.41004 8.83018 7.83004 9.65018C6.61004 9.54018 5.38004 9.63019 4.34004 10.0902C1.40004 11.3802 0.540041 14.7502 0.300041 16.2102C0.290041 16.2902 0.300041 16.3702 0.310041 16.4502C0.330041 16.5302 0.370041 16.6002 0.430041 16.6602C0.490041 16.7202 0.550041 16.7602 0.630041 16.7902C0.710041 16.8202 0.790041 16.8302 0.870041 16.8202L5.59004 16.3002C5.59004 16.6602 5.61004 17.0102 5.65004 17.3702C5.67004 17.6202 5.78004 17.8502 5.96004 18.0202L7.79004 19.8402C7.96004 20.0202 8.19004 20.1202 8.44004 20.1502C8.79004 20.1902 9.15004 20.2102 9.50004 20.2102L8.98004 24.9302C8.98004 25.0102 8.98004 25.0902 9.01004 25.1702C9.04004 25.2502 9.08004 25.3102 9.14004 25.3702C9.20004 25.4302 9.27004 25.4702 9.35004 25.4902C9.43004 25.5102 9.51004 25.5202 9.59004 25.5102C11.04 25.2802 14.42 24.4202 15.71 21.4802C16.16 20.4402 16.26 19.2202 16.15 18.0002C16.97 17.4302 17.73 16.7802 18.43 16.0702C22.41 12.1102 25.15 4.96018 24.39 1.63018L24.4 1.62018ZM14.47 11.3402C14.11 10.9802 13.86 10.5102 13.76 10.0102C13.66 9.51019 13.71 8.98019 13.91 8.51019C14.11 8.04019 14.44 7.63019 14.87 7.34019C15.3 7.05019 15.8 6.90019 16.31 6.90019C16.82 6.90019 17.33 7.05019 17.75 7.34019C18.18 7.63019 18.51 8.03019 18.71 8.51019C18.91 8.98019 18.96 9.51019 18.86 10.0102C18.76 10.5102 18.51 10.9802 18.15 11.3402C17.91 11.5802 17.62 11.7702 17.31 11.9002C17 12.0302 16.66 12.1002 16.32 12.1002C15.98 12.1002 15.64 12.0302 15.33 11.9002C15.02 11.7702 14.73 11.5802 14.49 11.3402H14.47Z" fill="#A19AFF"/>
<path d="M7.66992 21.1502C7.36992 21.4502 6.89992 21.5602 6.32992 21.6602C5.03992 21.8802 3.90992 20.7702 4.13992 19.4702C4.22992 18.9802 4.48992 18.2902 4.64992 18.1202C4.68992 18.0902 4.70992 18.0402 4.71992 17.9902C4.71992 17.9402 4.71992 17.8902 4.69992 17.8502C4.67992 17.8102 4.63992 17.7702 4.59992 17.7502C4.55992 17.7302 4.50992 17.7202 4.45992 17.7202C3.73992 17.8102 3.06992 18.1302 2.55992 18.6502C1.28992 19.9202 1.16992 24.6502 1.16992 24.6502C1.16992 24.6502 5.89992 24.5302 7.16992 23.2602C7.67992 22.7502 8.00992 22.0802 8.09992 21.3602C8.11992 21.1302 7.83992 21.0002 7.68992 21.1602L7.66992 21.1502Z" fill="#A19AFF"/>
</g>
<defs>
<clipPath id="clip0_5020_446">
<rect width="24.82" height="26.79" fill="white"/>
</clipPath>
</defs>
</svg>
