<svg width="25" height="25" viewBox="0 0 25 25" fill="none" xmlns="http://www.w3.org/2000/svg">
<path d="M22.3911 1.79568C22.3825 1.75422 22.3623 1.71606 22.3328 1.68568C22.3033 1.65529 22.2658 1.63394 22.2246 1.62412C19.4792 0.952865 13.1356 3.3449 9.6987 6.78037C9.08571 7.38841 8.52688 8.04872 8.02855 8.7538C6.9687 8.66005 5.90886 8.73833 5.00558 9.13208C2.45698 10.2538 1.71495 13.1807 1.50823 14.4397C1.49651 14.5087 1.50093 14.5793 1.52115 14.6463C1.54138 14.7132 1.57685 14.7745 1.62478 14.8254C1.67271 14.8763 1.73179 14.9153 1.79738 14.9395C1.86297 14.9637 1.93327 14.9723 2.00276 14.9647L6.09542 14.5133C6.09834 14.8219 6.11696 15.1301 6.1512 15.4368C6.1718 15.6497 6.26633 15.8488 6.41839 15.9993L8.00323 17.5804C8.15389 17.7322 8.35284 17.8267 8.56573 17.8476C8.87069 17.8817 9.17718 17.9003 9.48402 17.9033L9.03495 21.9908C9.02746 22.0603 9.03617 22.1306 9.06038 22.1961C9.0846 22.2616 9.12367 22.3207 9.17453 22.3686C9.22539 22.4165 9.28666 22.452 9.35353 22.4722C9.4204 22.4925 9.49106 22.497 9.55995 22.4854C10.8167 22.2838 13.7487 21.5418 14.8639 18.9932C15.2576 18.0899 15.3382 17.0352 15.2473 15.9805C15.9541 15.4822 16.6161 14.9232 17.2259 14.3099C20.6736 10.8796 23.052 4.67755 22.3911 1.79568ZM13.7862 10.2177C13.4714 9.9031 13.257 9.50219 13.17 9.06569C13.0831 8.6292 13.1276 8.17672 13.2978 7.7655C13.4681 7.35428 13.7564 7.00279 14.1265 6.75549C14.4965 6.5082 14.9316 6.3762 15.3767 6.3762C15.8217 6.3762 16.2568 6.5082 16.6269 6.75549C16.9969 7.00279 17.2853 7.35428 17.4555 7.7655C17.6258 8.17672 17.6703 8.6292 17.5833 9.06569C17.4964 9.50219 17.282 9.9031 16.9671 10.2177C16.7584 10.4268 16.5105 10.5926 16.2376 10.7058C15.9646 10.8189 15.6721 10.8772 15.3767 10.8772C15.0812 10.8772 14.7887 10.8189 14.5158 10.7058C14.2429 10.5926 13.995 10.4268 13.7862 10.2177Z" fill="#A19AFF"/>
<path d="M7.89565 18.7238C7.63874 18.9812 7.22665 19.0815 6.73064 19.1673C5.61627 19.3572 4.63222 18.3942 4.8324 17.2677C4.90882 16.8406 5.13479 16.2419 5.27544 16.1013C5.30618 16.0711 5.32664 16.0321 5.33392 15.9896C5.34119 15.9472 5.33491 15.9035 5.31597 15.8649C5.29702 15.8262 5.26638 15.7945 5.22839 15.7742C5.19039 15.754 5.14698 15.7462 5.10432 15.752C4.48115 15.8282 3.9014 16.1108 3.45736 16.5546C2.35518 17.6577 2.2511 21.751 2.2511 21.751C2.2511 21.751 6.34668 21.6469 7.44887 20.5438C7.89409 20.1001 8.17698 19.5195 8.25196 18.8954C8.2693 18.6994 8.03067 18.5827 7.89565 18.7238Z" fill="#A19AFF"/>
</svg>
