<svg width="16" height="21" viewBox="0 0 16 21" fill="none" xmlns="http://www.w3.org/2000/svg">
<path d="M0.00130267 11.0151C0.00130267 8.00284 -0.000501713 4.99059 0.00130267 1.97924C0.00220486 0.709215 0.706817 0.00224862 1.9735 0.00134917C5.97201 -0.000449724 9.96963 -0.000449724 13.9681 0.00134917C15.2258 0.00134917 15.9936 0.748791 15.9954 2.01432C16.0026 8.0685 15.9999 14.1227 15.9972 20.1769C15.9972 20.8308 15.8447 20.9873 15.2087 20.9909C13.7958 20.9972 12.383 20.9819 10.9702 20.9999C10.5317 21.0053 10.3919 20.8317 10.4018 20.4134C10.4216 19.5895 10.4171 18.7647 10.4018 17.9409C10.3792 16.7329 9.45357 15.7075 8.31952 15.6113C6.90758 15.4917 5.8024 16.2697 5.56512 17.5658C5.391 18.5165 5.49024 19.4798 5.49114 20.4359C5.49114 20.8803 5.33145 21.0035 4.91284 20.999C3.52978 20.9819 2.14762 20.9963 0.764558 20.9909C0.116784 20.9882 0.000400974 20.8686 0.000400974 20.2317C-0.000501218 17.1601 0.000400974 14.0876 0.000400974 11.016L0.00130267 11.0151ZM13.2942 5.05175C13.2942 5.05175 13.2969 5.05175 13.2987 5.05175C13.2987 4.73695 13.3041 4.42214 13.2978 4.10733C13.287 3.58475 13.0578 3.33021 12.5328 3.31222C11.9021 3.29153 11.2697 3.29333 10.6391 3.31222C10.16 3.32571 9.84602 3.59555 9.82708 4.04977C9.79731 4.73785 9.7937 5.42952 9.83249 6.1158C9.85324 6.48188 10.0562 6.7751 10.4911 6.7769C11.2273 6.78049 11.9644 6.78499 12.7006 6.7724C13.0768 6.7661 13.2816 6.54844 13.2924 6.17516C13.3032 5.80099 13.2951 5.42592 13.2951 5.05175H13.2942ZM11.5809 13.2583C11.8967 13.2583 12.2125 13.2628 12.5282 13.2574C13.1138 13.2466 13.2897 13.0802 13.2978 12.5091C13.3068 11.8651 13.3059 11.2202 13.2978 10.5762C13.2915 10.0581 13.0542 9.80534 12.5255 9.78915C11.8949 9.76936 11.2625 9.77026 10.6318 9.78915C10.1392 9.80444 9.83881 10.0941 9.82167 10.578C9.79911 11.2211 9.79821 11.8669 9.82167 12.5109C9.84061 13.0281 10.1004 13.2475 10.6345 13.2574C10.9503 13.2628 11.2661 13.2583 11.5818 13.2583H11.5809ZM6.07216 5.09942C6.07216 5.09942 6.07396 5.09942 6.07486 5.09942C6.07486 4.75494 6.08479 4.40955 6.07216 4.06596C6.05501 3.58835 5.83217 3.33471 5.35491 3.31672C4.69451 3.29153 4.0323 3.29063 3.37189 3.31852C2.97583 3.33471 2.66999 3.53258 2.66367 3.98051C2.65194 4.71446 2.64924 5.44841 2.66728 6.18236C2.6763 6.57452 2.90907 6.78049 3.30784 6.78049C4.01425 6.78139 4.72067 6.78229 5.42619 6.78049C5.85473 6.77959 6.05682 6.54034 6.06945 6.13379C6.08027 5.7893 6.07216 5.44481 6.07216 5.10032V5.09942ZM4.36521 13.2583C4.69541 13.2583 5.02651 13.2655 5.35672 13.2565C5.87187 13.243 6.06043 13.064 6.07125 12.5433C6.08569 11.8849 6.08388 11.2247 6.07125 10.5663C6.06223 10.0608 5.83307 9.80894 5.33236 9.79095C4.68729 9.76846 4.03952 9.76936 3.39445 9.79095C2.92711 9.80624 2.67269 10.0455 2.66187 10.4772C2.64382 11.1959 2.64743 11.9154 2.66187 12.6341C2.66999 13.0479 2.90546 13.2601 3.32678 13.2574C3.67232 13.2556 4.01786 13.2574 4.3634 13.2574L4.36521 13.2583Z" fill="#F9FAFB"/>
</svg>
