<svg width="19" height="24" viewBox="0 0 19 24" fill="none" xmlns="http://www.w3.org/2000/svg">
<path d="M15.7539 6.2432L17.4614 4.33062V3.63186V2.93287V1.53534C17.4614 1.14944 17.0134 0.898926 16.6275 0.898926H14.5312C14.1453 0.898926 13.6759 1.14944 13.6759 1.53534V2.90303H11.6718V1.53534C11.6718 1.14944 11.423 0.898926 11.0371 0.898926H8.24206C7.85616 0.898926 7.66354 1.14944 7.66354 1.53534V2.90303H5.43676V1.53534C5.43676 1.14944 5.13414 0.898926 4.74824 0.898926H2.65195C2.26605 0.898926 1.87391 1.14944 1.87391 1.53534V2.93287V3.63163V4.3304L3.52529 6.2432H15.7539Z" fill="#15123F"/>
<path d="M1.2542 19.1587C0.868521 19.1587 0.537842 19.3179 0.537842 19.7038V22.4989C0.537842 22.8848 0.868521 23.1669 1.2542 23.1669H18.0248C18.4109 23.1669 18.7975 22.8848 18.7975 22.4989V19.7038C18.7975 19.3179 18.4109 19.1587 18.025 19.1587H1.2542Z" fill="#15123F"/>
<path d="M15.2299 7.35645H4.04948L2.73412 18.4904H16.5451L15.2299 7.35645ZM11.0037 13.3688H8.33158V11.3181C8.33158 10.5977 8.94728 9.92059 9.66765 9.92059C10.388 9.92059 11.0037 10.5977 11.0037 11.3181V13.3688Z" fill="#15123F"/>
</svg>
