<svg width="19" height="23" viewBox="0 0 19 23" fill="none" xmlns="http://www.w3.org/2000/svg">
<path d="M15.216 5.34428L16.9235 3.43169V2.73293V2.03394V0.636414C16.9235 0.250513 16.4755 0 16.0896 0H13.9933C13.6074 0 13.138 0.250513 13.138 0.636414V2.0041H11.1339V0.636414C11.1339 0.250513 10.8852 0 10.4993 0H7.70421C7.31831 0 7.12569 0.250513 7.12569 0.636414V2.0041H4.89891V0.636414C4.89891 0.250513 4.59629 0 4.21039 0H2.1141C1.7282 0 1.33606 0.250513 1.33606 0.636414V2.03394V2.73271V3.43147L2.98744 5.34428H15.216Z" fill="#0E1626"/>
<path d="M0.716356 18.2598C0.330679 18.2598 0 18.419 0 18.8049V21.5999C0 21.9858 0.330679 22.268 0.716356 22.268H17.4869C17.873 22.268 18.2596 21.9858 18.2596 21.5999V18.8049C18.2596 18.419 17.873 18.2598 17.4871 18.2598H0.716356Z" fill="#0E1626"/>
<path d="M14.6921 6.45752H3.51165L2.19629 17.5914H16.0072L14.6921 6.45752ZM10.4659 12.4698H7.79375V10.4192C7.79375 9.69882 8.40945 9.02166 9.12982 9.02166C9.85019 9.02166 10.4659 9.69882 10.4659 10.4192V12.4698Z" fill="#0E1626"/>
</svg>
