<?xml version="1.0" encoding="UTF-8"?>
<svg id="Calque_2" data-name="Calque 2" xmlns="http://www.w3.org/2000/svg" viewBox="0 0 24.82 26.79">
  <defs>
    <style>
      .cls-1 {
        fill: #141227;
      }
    </style>
  </defs>
  <path class="cls-1" d="m19.16,6.97l1.89-2.12V1.75c0-.43-.5-.71-.92-.71h-2.32c-.43,0-.95.28-.95.71v1.52h-2.22v-1.52c0-.43-.28-.71-.7-.71h-3.1c-.43,0-.64.28-.64.71v1.52h-2.47v-1.52c0-.43-.34-.71-.76-.71h-2.32c-.43,0-.86.28-.86.71v3.1l1.83,2.12h13.56Z"/>
  <path class="cls-1" d="m3.08,21.29c-.43,0-.79.18-.79.6v3.1c0,.43.37.74.79.74h18.6c.43,0,.86-.31.86-.74v-3.1c0-.43-.43-.6-.86-.6H3.08Z"/>
  <path class="cls-1" d="m18.58,8.21H6.18l-1.46,12.35h15.31l-1.46-12.35Zm-4.69,6.67h-2.96v-2.27c0-.8.68-1.55,1.48-1.55s1.48.75,1.48,1.55v2.27Z"/>
</svg>