<?xml version="1.0" encoding="UTF-8"?>
<svg id="Calque_4" data-name="Calque 4" xmlns="http://www.w3.org/2000/svg" viewBox="0 0 24.82 26.79">
  <defs>
    <style>
      .cls-1 {
        fill: #141227;
      }
    </style>
  </defs>
  <path class="cls-1" d="m2.3,22.57c0,.97.39,1.91,1.08,2.6.69.69,1.62,1.08,2.6,1.08h5.28c.06,0,.12-.02.16-.07.04-.04.07-.1.07-.16v-10.57c0-.06-.02-.12-.07-.16-.04-.04-.1-.07-.16-.07H2.76c-.12,0-.24.05-.32.13-.09.09-.13.2-.13.32v6.89Z"/>
  <path class="cls-1" d="m11.49,13.15v-6.2h1.84v6.2c0,.06.02.12.07.16.04.04.1.07.16.07h8.04c.31,0,.62-.05.92-.16.54-.19,1-.54,1.33-1.01.33-.47.51-1.02.51-1.59v-.92c0-.73-.29-1.43-.81-1.95-.52-.52-1.22-.81-1.95-.81h-2.33s-.04,0-.06-.02c-.02-.01-.03-.02-.04-.04,0-.02-.02-.04-.01-.06,0-.02,0-.04.02-.06.53-.9.7-1.96.48-2.98-.22-1.02-.82-1.92-1.67-2.52-.86-.6-1.91-.85-2.94-.7s-1.97.67-2.63,1.48c-.66-.81-1.6-1.34-2.63-1.48-1.03-.14-2.08.11-2.94.7-.86.6-1.45,1.5-1.67,2.52-.22,1.02-.05,2.09.48,2.98.01.02.02.04.02.06,0,.02,0,.04-.01.06,0,.02-.02.03-.04.04-.02.01-.04.02-.06.02h-2.33c-.73,0-1.43.29-1.95.81-.52.52-.81,1.22-.81,1.95v.92c0,.57.18,1.13.51,1.59.33.47.79.82,1.33,1.01h0c.3.1.61.16.92.16h8.04c.06,0,.12-.02.16-.07.04-.04.07-.1.07-.16Zm1.84-8.5c0-.45.13-.9.39-1.28.25-.38.61-.67,1.03-.85.42-.17.88-.22,1.33-.13.45.09.85.31,1.18.63.32.32.54.73.63,1.18.09.45.04.91-.13,1.33-.17.42-.47.78-.85,1.03s-.82.39-1.28.39h-2.3v-2.3Zm-4.3-2.29c.31-.02.63.02.93.12.3.1.57.27.8.49.23.22.42.48.54.76.13.29.19.6.19.92v2.3h-2.3c-.59,0-1.16-.23-1.59-.65-.43-.41-.68-.98-.7-1.57-.02-.59.19-1.17.58-1.61.4-.44.95-.71,1.54-.76h0Z"/>
  <path class="cls-1" d="m13.56,26.25h5.28c.97,0,1.91-.39,2.6-1.08s1.08-1.62,1.08-2.6v-6.89c0-.12-.05-.24-.13-.32-.09-.09-.2-.13-.32-.13h-8.5c-.06,0-.12.02-.16.07-.04.04-.07.1-.07.16v10.57c0,.06.02.12.07.16s.1.07.16.07Z"/>
</svg>