<svg width="25" height="27" viewBox="0 0 25 27" fill="none" xmlns="http://www.w3.org/2000/svg">
<g clip-path="url(#clip0_5020_442)">
<path d="M2.30005 22.5702C2.30005 23.5402 2.69005 24.4802 3.38005 25.1702C4.07005 25.8602 5.00005 26.2502 5.98005 26.2502H11.26C11.32 26.2502 11.38 26.2302 11.42 26.1802C11.46 26.1402 11.49 26.0802 11.49 26.0202V15.4502C11.49 15.3902 11.47 15.3302 11.42 15.2902C11.38 15.2502 11.32 15.2202 11.26 15.2202H2.76005C2.64005 15.2202 2.52005 15.2702 2.44005 15.3502C2.35005 15.4402 2.31005 15.5502 2.31005 15.6702V22.5602L2.30005 22.5702Z" fill="#A19AFF"/>
<path d="M11.49 13.1501V6.9501H13.33V13.1501C13.33 13.2101 13.35 13.2701 13.4 13.3101C13.44 13.3501 13.5 13.3801 13.56 13.3801H21.6C21.91 13.3801 22.22 13.3301 22.52 13.2201C23.06 13.0301 23.52 12.6801 23.85 12.2101C24.18 11.7401 24.36 11.1901 24.36 10.6201V9.7001C24.36 8.9701 24.07 8.2701 23.55 7.7501C23.03 7.2301 22.33 6.9401 21.6 6.9401H19.27C19.27 6.9401 19.23 6.9401 19.21 6.9201C19.19 6.9101 19.18 6.9001 19.17 6.8801C19.17 6.8601 19.15 6.8401 19.16 6.8201C19.16 6.8001 19.16 6.7801 19.18 6.7601C19.71 5.8601 19.88 4.8001 19.66 3.7801C19.44 2.7601 18.84 1.8601 17.99 1.2601C17.13 0.660101 16.08 0.410101 15.05 0.560101C14.02 0.710101 13.08 1.2301 12.42 2.0401C11.76 1.2301 10.82 0.700101 9.78998 0.560101C8.75998 0.420101 7.70998 0.670101 6.84998 1.2601C5.98998 1.8601 5.39998 2.7601 5.17998 3.7801C4.95998 4.8001 5.12998 5.8701 5.65998 6.7601C5.66998 6.7801 5.67998 6.8001 5.67998 6.8201C5.67998 6.8401 5.67998 6.8601 5.66998 6.8801C5.66998 6.9001 5.64998 6.9101 5.62998 6.9201C5.60998 6.9301 5.58998 6.9401 5.56998 6.9401H3.23998C2.50998 6.9401 1.80998 7.2301 1.28998 7.7501C0.76998 8.2701 0.47998 8.9701 0.47998 9.7001V10.6201C0.47998 11.1901 0.65998 11.7501 0.98998 12.2101C1.31998 12.6801 1.77998 13.0301 2.31998 13.2201C2.61998 13.3201 2.92998 13.3801 3.23998 13.3801H11.28C11.34 13.3801 11.4 13.3601 11.44 13.3101C11.48 13.2701 11.51 13.2101 11.51 13.1501H11.49ZM13.33 4.6501C13.33 4.2001 13.46 3.7501 13.72 3.3701C13.97 2.9901 14.33 2.7001 14.75 2.5201C15.17 2.3501 15.63 2.3001 16.08 2.3901C16.53 2.4801 16.93 2.7001 17.26 3.0201C17.58 3.3401 17.8 3.7501 17.89 4.2001C17.98 4.6501 17.93 5.1101 17.76 5.5301C17.59 5.9501 17.29 6.3101 16.91 6.5601C16.53 6.8101 16.09 6.9501 15.63 6.9501H13.33V4.6501ZM9.02998 2.3601C9.33998 2.3401 9.65998 2.3801 9.95998 2.4801C10.26 2.5801 10.53 2.7501 10.76 2.9701C10.99 3.1901 11.18 3.4501 11.3 3.7301C11.43 4.0201 11.49 4.3301 11.49 4.6501V6.9501H9.18998C8.59998 6.9501 8.02998 6.7201 7.59998 6.3001C7.16998 5.8901 6.91998 5.3201 6.89998 4.7301C6.87998 4.1401 7.08998 3.5601 7.47998 3.1201C7.87998 2.6801 8.42998 2.4101 9.01998 2.3601H9.02998Z" fill="#A19AFF"/>
<path d="M13.5601 26.25H18.8401C19.8101 26.25 20.7501 25.86 21.4401 25.17C22.1301 24.48 22.5201 23.55 22.5201 22.57V15.68C22.5201 15.56 22.4701 15.44 22.3901 15.36C22.3001 15.27 22.1901 15.23 22.0701 15.23H13.5701C13.5101 15.23 13.4501 15.25 13.4101 15.3C13.3701 15.34 13.3401 15.4 13.3401 15.46V26.03C13.3401 26.09 13.3601 26.15 13.4101 26.19C13.4601 26.23 13.5101 26.26 13.5701 26.26L13.5601 26.25Z" fill="#A19AFF"/>
</g>
<defs>
<clipPath id="clip0_5020_442">
<rect width="24.82" height="26.79" fill="white"/>
</clipPath>
</defs>
</svg>
