<svg width="27" height="27" viewBox="0 0 27 27" fill="none" xmlns="http://www.w3.org/2000/svg">
<path d="M4.21812 21.9393C4.21812 22.8345 4.57375 23.6931 5.20678 24.3261C5.83981 24.9591 6.69837 25.3147 7.59361 25.3147H12.4459C12.5018 25.3147 12.5555 25.2925 12.595 25.2529C12.6346 25.2134 12.6568 25.1597 12.6568 25.1038V15.3993C12.6568 15.3433 12.6346 15.2896 12.595 15.2501C12.5555 15.2105 12.5018 15.1883 12.4459 15.1883H4.64006C4.52816 15.1883 4.42083 15.2327 4.34171 15.3119C4.26258 15.391 4.21812 15.4983 4.21812 15.6102V21.9393Z" fill="#15123F"/>
<path d="M12.6565 13.2892V7.5939H14.344V13.2892C14.344 13.3452 14.3662 13.3988 14.4058 13.4384C14.4454 13.4779 14.499 13.5001 14.5549 13.5001H21.9378C22.2252 13.5001 22.5106 13.4511 22.7815 13.3551C23.2746 13.1801 23.7015 12.8568 24.0036 12.4296C24.3057 12.0023 24.4683 11.4921 24.469 10.9689V10.1251C24.469 9.45382 24.2023 8.80998 23.7276 8.33528C23.2529 7.86058 22.6091 7.5939 21.9378 7.5939H19.7999C19.7815 7.5936 19.7636 7.58852 19.7478 7.57914C19.732 7.56976 19.7189 7.55642 19.7098 7.54044C19.7008 7.52445 19.696 7.50638 19.6961 7.48801C19.6962 7.46964 19.7011 7.4516 19.7103 7.43569C20.1985 6.61139 20.3571 5.633 20.1542 4.69668C19.9513 3.76037 19.402 2.93537 18.6163 2.3871C17.8307 1.83882 16.8668 1.60782 15.918 1.7404C14.9692 1.87299 14.1055 2.35935 13.5003 3.10198C12.895 2.35935 12.0314 1.87299 11.0825 1.7404C10.1337 1.60782 9.16985 1.83882 8.38421 2.3871C7.59856 2.93537 7.04922 3.76037 6.84634 4.69668C6.64345 5.633 6.80203 6.61139 7.29026 7.43569C7.29945 7.4516 7.30432 7.46964 7.3044 7.48801C7.30447 7.50638 7.29975 7.52445 7.29069 7.54044C7.28163 7.55642 7.26856 7.56976 7.25276 7.57914C7.23696 7.58852 7.21898 7.5936 7.20061 7.5939H5.06276C4.39143 7.5939 3.7476 7.86058 3.2729 8.33528C2.79819 8.80998 2.53151 9.45382 2.53151 10.1251V10.9689C2.53225 11.4921 2.69483 12.0023 2.99694 12.4296C3.29906 12.8568 3.72592 13.1801 4.21901 13.3551V13.3551C4.48997 13.4511 4.77531 13.5001 5.06276 13.5001H12.4456C12.5015 13.5001 12.5552 13.4779 12.5947 13.4384C12.6343 13.3988 12.6565 13.3452 12.6565 13.2892ZM14.344 5.48452C14.344 5.06733 14.4677 4.6595 14.6995 4.31262C14.9313 3.96573 15.2607 3.69537 15.6462 3.53571C16.0316 3.37606 16.4557 3.33429 16.8649 3.41568C17.2741 3.49707 17.6499 3.69797 17.9449 3.99297C18.2399 4.28797 18.4408 4.66382 18.5222 5.073C18.6036 5.48218 18.5618 5.90631 18.4022 6.29174C18.2425 6.67718 17.9722 7.00662 17.6253 7.2384C17.2784 7.47018 16.8706 7.5939 16.4534 7.5939H14.344V5.48452ZM10.3963 3.38042C10.6853 3.3597 10.9755 3.39874 11.2487 3.4951C11.5219 3.59146 11.7724 3.74307 11.9844 3.94048C12.1965 4.1379 12.3656 4.37688 12.4812 4.64253C12.5969 4.90818 12.6565 5.1948 12.6565 5.48452V7.5939H10.5471C10.0017 7.5925 9.47801 7.37987 9.08597 7.00065C8.69394 6.62142 8.46404 6.10508 8.44452 5.55999C8.42501 5.01491 8.6174 4.48345 8.98131 4.07716C9.34523 3.67087 9.85238 3.42135 10.3963 3.38095V3.38042Z" fill="#15123F"/>
<path d="M14.5549 25.3147H19.4072C20.3024 25.3147 21.161 24.9591 21.794 24.3261C22.427 23.6931 22.7826 22.8345 22.7826 21.9393V15.6102C22.7826 15.4983 22.7382 15.391 22.6591 15.3119C22.5799 15.2327 22.4726 15.1883 22.3607 15.1883H14.5549C14.4989 15.1883 14.4453 15.2105 14.4057 15.2501C14.3662 15.2896 14.3439 15.3433 14.3439 15.3993V25.1038C14.3439 25.1597 14.3662 25.2134 14.4057 25.2529C14.4453 25.2925 14.4989 25.3147 14.5549 25.3147Z" fill="#15123F"/>
</svg>
