<svg width="17" height="17" viewBox="0 0 17 17" fill="none" xmlns="http://www.w3.org/2000/svg">
<path d="M2.41071 0C3.74625 0 4.82143 1.08211 4.82143 2.42627C4.82143 3.77042 3.74625 4.85254 2.41071 4.85254C1.07518 4.85254 0 3.77042 0 2.42627C0 1.08211 1.07518 0 2.41071 0Z" fill="#F9FAFB"/>
<path d="M8.43749 0C9.77303 0 10.8482 1.08211 10.8482 2.42627C10.8482 3.77042 9.77303 4.85254 8.43749 4.85254C7.10196 4.85254 6.02678 3.77042 6.02678 2.42627C6.02678 1.08211 7.10196 0 8.43749 0Z" fill="#F9FAFB"/>
<path d="M14.4643 0C15.7998 0 16.875 1.08211 16.875 2.42627C16.875 3.77042 15.7998 4.85254 14.4643 4.85254C13.1288 4.85254 12.0536 3.77042 12.0536 2.42627C12.0536 1.08211 13.1288 0 14.4643 0Z" fill="#F9FAFB"/>
<path d="M2.41071 6.06567C3.74624 6.06567 4.82143 7.14779 4.82143 8.49194C4.82143 9.83609 3.74625 10.9182 2.41072 10.9182C1.07519 10.9182 0 9.83609 0 8.49194C0 7.14779 1.07518 6.06567 2.41071 6.06567Z" fill="#F9FAFB"/>
<path d="M8.43749 6.06567C9.77303 6.06567 10.8482 7.14779 10.8482 8.49194C10.8482 9.8361 9.77303 10.9182 8.43749 10.9182C7.10196 10.9182 6.02678 9.8361 6.02678 8.49194C6.02678 7.14779 7.10196 6.06567 8.43749 6.06567Z" fill="#F9FAFB"/>
<path d="M14.4643 6.06567C15.7998 6.06567 16.875 7.14779 16.875 8.49194C16.875 9.8361 15.7998 10.9182 14.4643 10.9182C13.1288 10.9182 12.0536 9.8361 12.0536 8.49194C12.0536 7.14779 13.1288 6.06567 14.4643 6.06567Z" fill="#F9FAFB"/>
<path d="M2.41071 12.1313C3.74625 12.1313 4.82143 13.2135 4.82143 14.5576C4.82143 15.9018 3.74625 16.9839 2.41071 16.9839C1.07518 16.9839 0 15.9018 0 14.5576C0 13.2135 1.07518 12.1313 2.41071 12.1313Z" fill="#F9FAFB"/>
<path d="M8.43749 12.1313C9.77303 12.1313 10.8482 13.2135 10.8482 14.5576C10.8482 15.9018 9.77303 16.9839 8.43749 16.9839C7.10196 16.9839 6.02678 15.9018 6.02678 14.5576C6.02678 13.2135 7.10196 12.1313 8.43749 12.1313Z" fill="#F9FAFB"/>
<path d="M14.4643 12.1313C15.7998 12.1313 16.875 13.2135 16.875 14.5576C16.875 15.9018 15.7998 16.9839 14.4643 16.9839C13.1288 16.9839 12.0536 15.9018 12.0536 14.5576C12.0536 13.2135 13.1288 12.1313 14.4643 12.1313Z" fill="#F9FAFB"/>
</svg>
