<svg width="23" height="25" viewBox="0 0 23 25" fill="none" xmlns="http://www.w3.org/2000/svg">
<path d="M8.15991 18.2704C8.15991 16.289 8.15991 14.3076 8.15991 12.3262C8.15991 11.8432 8.1701 11.8323 8.64531 11.8323C10.525 11.8308 12.404 11.8396 14.2837 11.825C14.6505 11.8221 14.7618 11.9395 14.7604 12.3058C14.7495 16.2802 14.7538 20.2554 14.7531 24.2299C14.7531 24.7143 14.7502 24.7165 14.2677 24.7165C12.388 24.7172 10.509 24.7085 8.6293 24.7245C8.26398 24.7274 8.149 24.6209 8.15191 24.251C8.16792 22.258 8.15919 20.2642 8.15919 18.2711L8.15991 18.2704Z" fill="#0E1626"/>
<path d="M0.0074249 19.8308C0.0074249 18.3725 0.0168855 16.9142 0.00014775 15.4559C-0.00421861 15.0977 0.0925689 14.9634 0.468803 14.9664C2.35944 14.9817 4.2508 14.9817 6.14216 14.9664C6.51912 14.9634 6.613 15.1013 6.61154 15.4581C6.5999 18.3871 6.5999 21.3154 6.61154 24.2445C6.613 24.6063 6.51184 24.7282 6.13925 24.7252C4.24861 24.7085 2.35725 24.7077 0.465893 24.7252C0.0867473 24.7289 -0.00421861 24.5983 0.00014775 24.2423C0.0168855 22.7723 0.00742503 21.3016 0.0066973 19.8308H0.0074249Z" fill="#0E1626"/>
<path d="M22.9066 20.8602C22.9066 22.0026 22.8964 23.1451 22.9132 24.2875C22.9183 24.6224 22.8076 24.726 22.4758 24.7238C20.5604 24.7106 18.645 24.7121 16.7289 24.723C16.4175 24.7245 16.3025 24.6318 16.3032 24.3087C16.3134 21.9873 16.312 19.6659 16.3047 17.3446C16.304 17.0448 16.4109 16.9375 16.7078 16.939C18.6356 16.947 20.5633 16.9477 22.4911 16.9375C22.8062 16.9361 22.9161 17.0418 22.9124 17.3606C22.8986 18.5272 22.9066 19.6944 22.9066 20.8609V20.8602Z" fill="#0E1626"/>
<path d="M13.7947 7.75774C13.3246 7.60746 12.8225 7.49292 12.3597 7.28865C11.7418 7.01581 11.1655 7.02311 10.552 7.29449C10.1328 7.47979 9.67725 7.57974 9.24062 7.7271C8.97936 7.81537 8.88185 7.72272 8.88403 7.46009C8.8884 6.87647 8.88039 6.29358 8.88403 5.70996C8.88694 5.30872 8.79016 4.95708 8.52817 4.63244C8.17013 4.18962 7.8623 3.70594 7.51809 3.25072C7.3347 3.00779 7.3609 2.88231 7.66364 2.79039C8.28948 2.60071 8.90659 2.38185 9.53171 2.1878C9.75075 2.11995 9.91813 2.00906 10.0513 1.81939C10.4348 1.27297 10.8387 0.740414 11.2179 0.19108C11.3976 -0.0693613 11.522 -0.0591479 11.6967 0.194728C12.062 0.724365 12.4506 1.23722 12.8188 1.7654C12.9717 1.98499 13.1594 2.12214 13.4192 2.2002C14.0225 2.38112 14.6185 2.58612 15.2167 2.78528C15.5959 2.91076 15.6068 2.94651 15.3673 3.28136C15.0428 3.73585 14.7335 4.20275 14.382 4.63536C14.1193 4.95927 14.0254 5.31236 14.0283 5.71287C14.032 6.2965 14.0298 6.87939 14.0254 7.46301C14.0247 7.60673 14.0363 7.77306 13.7933 7.75701L13.7947 7.75774Z" fill="#0E1626"/>
</svg>
