<svg width="25" height="27" viewBox="0 0 25 27" fill="none" xmlns="http://www.w3.org/2000/svg">
<g clip-path="url(#clip0_5020_449)">
<path d="M8.84009 19.7901V13.3501C8.84009 12.8301 8.85009 12.8101 9.37009 12.8101C11.4101 12.8101 13.4401 12.8101 15.4801 12.8101C15.8801 12.8101 16.0001 12.9301 16.0001 13.3301C15.9901 17.6401 16.0001 21.9401 16.0001 26.2501C16.0001 26.7701 16.0001 26.7801 15.4701 26.7801C13.4301 26.7801 11.4001 26.7801 9.36009 26.7801C8.96009 26.7801 8.84009 26.6701 8.84009 26.2701C8.86009 24.1101 8.84009 21.9501 8.84009 19.7901Z" fill="#A19AFF"/>
<path d="M0 21.48C0 19.9 0.02 18.32 0 16.74C0 16.35 0.1 16.21 0.51 16.21C2.56 16.23 4.61 16.23 6.66 16.21C7.07 16.21 7.17 16.36 7.17 16.74C7.16 19.91 7.16 23.09 7.17 26.26C7.17 26.65 7.06 26.78 6.66 26.78C4.61 26.76 2.56 26.76 0.51 26.78C0.1 26.78 0 26.64 0.01 26.26C0.03 24.67 0.01 23.07 0.01 21.48H0Z" fill="#A19AFF"/>
<path d="M24.8199 22.6001C24.8199 23.8401 24.8099 25.0801 24.8199 26.3101C24.8199 26.6701 24.7099 26.7801 24.3499 26.7801C22.2699 26.7701 20.1999 26.7701 18.1199 26.7801C17.7799 26.7801 17.6599 26.6801 17.6599 26.3301C17.6699 23.8201 17.6599 21.3001 17.6599 18.7901C17.6599 18.4701 17.7799 18.3501 18.0999 18.3501C20.1899 18.3501 22.2799 18.3501 24.3699 18.3501C24.7099 18.3501 24.8299 18.4601 24.8299 18.8101C24.8199 20.0701 24.8299 21.3401 24.8299 22.6001H24.8199Z" fill="#A19AFF"/>
<path d="M14.9401 8.40015C14.4301 8.24015 13.8901 8.11015 13.3901 7.89015C12.7201 7.59015 12.1001 7.60015 11.4301 7.89015C10.9801 8.09015 10.4801 8.20015 10.0101 8.36015C9.73008 8.46015 9.62008 8.36015 9.62008 8.07015C9.62008 7.44015 9.62008 6.81015 9.62008 6.17015C9.62008 5.74015 9.52008 5.35015 9.23008 5.00015C8.84008 4.52015 8.51008 4.00015 8.14008 3.50015C7.94008 3.24015 7.97008 3.10015 8.30008 3.00015C8.98008 2.79015 9.65008 2.56015 10.3201 2.35015C10.5601 2.28015 10.7401 2.16015 10.8801 1.95015C11.3001 1.36015 11.7301 0.780154 12.1401 0.190154C12.3301 -0.0898462 12.4701 -0.0798462 12.6601 0.190154C13.0601 0.760154 13.4801 1.32015 13.8801 1.89015C14.0501 2.13015 14.2501 2.28015 14.5301 2.36015C15.1801 2.56015 15.8301 2.78015 16.4801 2.99015C16.8901 3.13015 16.9001 3.16015 16.6401 3.53015C16.2901 4.02015 15.9501 4.53015 15.5701 5.00015C15.2901 5.35015 15.1801 5.73015 15.1901 6.17015C15.1901 6.80015 15.1901 7.43015 15.1901 8.07015C15.1901 8.23015 15.2001 8.41015 14.9401 8.39015V8.40015Z" fill="#A19AFF"/>
</g>
<defs>
<clipPath id="clip0_5020_449">
<rect width="24.82" height="26.79" fill="white"/>
</clipPath>
</defs>
</svg>
