<svg width="24" height="25" viewBox="0 0 24 25" fill="none" xmlns="http://www.w3.org/2000/svg">
<path d="M8.70191 18.2696C8.70191 16.2883 8.70191 14.3069 8.70191 12.3255C8.70191 11.8425 8.71209 11.8316 9.1873 11.8316C11.067 11.8301 12.946 11.8389 14.8257 11.8243C15.1925 11.8214 15.3038 11.9388 15.3024 12.305C15.2915 16.2795 15.2958 20.2547 15.2951 24.2292C15.2951 24.7136 15.2922 24.7158 14.8097 24.7158C12.93 24.7165 11.051 24.7077 9.17129 24.7238C8.80597 24.7267 8.69099 24.6202 8.6939 24.2503C8.70991 22.2572 8.70118 20.2634 8.70118 18.2704L8.70191 18.2696Z" fill="#0C0A29"/>
<path d="M0.549417 19.8301C0.549417 18.3718 0.558878 16.9135 0.54214 15.4551C0.537774 15.0969 0.634561 14.9627 1.0108 14.9656C2.90143 14.9809 4.79279 14.9809 6.68415 14.9656C7.06111 14.9627 7.15499 15.1006 7.15353 15.4573C7.14189 18.3864 7.14189 21.3147 7.15353 24.2438C7.15499 24.6056 7.05384 24.7274 6.68124 24.7245C4.79061 24.7077 2.89925 24.707 1.00788 24.7245C0.628739 24.7282 0.537774 24.5976 0.54214 24.2416C0.558878 22.7716 0.549417 21.3008 0.548689 19.8301H0.549417Z" fill="#0C0A29"/>
<path d="M23.4486 20.8595C23.4486 22.0019 23.4384 23.1443 23.4552 24.2868C23.4603 24.6216 23.3496 24.7252 23.0178 24.723C21.1024 24.7099 19.187 24.7114 17.2709 24.7223C16.9595 24.7238 16.8445 24.6311 16.8452 24.3079C16.8554 21.9866 16.854 19.6652 16.8467 17.3439C16.8459 17.044 16.9529 16.9368 17.2498 16.9382C19.1776 16.9463 21.1053 16.947 23.0331 16.9368C23.3482 16.9353 23.4581 17.0411 23.4544 17.3599C23.4406 18.5264 23.4486 19.6937 23.4486 20.8602V20.8595Z" fill="#0C0A29"/>
<path d="M14.3367 7.75701C13.8666 7.60673 13.3645 7.49219 12.9016 7.28792C12.2838 7.01508 11.7074 7.02237 11.094 7.29376C10.6748 7.47906 10.2192 7.579 9.78261 7.72637C9.52136 7.81464 9.42384 7.72199 9.42602 7.45936C9.43039 6.87574 9.42239 6.29285 9.42602 5.70922C9.42893 5.30798 9.33215 4.95635 9.07017 4.63171C8.71212 4.18889 8.4043 3.70521 8.06008 3.24999C7.8767 3.00705 7.90289 2.88158 8.20563 2.78965C8.83147 2.59998 9.44858 2.38112 10.0737 2.18706C10.2927 2.11922 10.4601 2.00833 10.5933 1.81865C10.9768 1.27224 11.3807 0.739682 11.7598 0.190348C11.9396 -0.0700937 12.064 -0.0598803 12.2387 0.193995C12.604 0.723632 12.9926 1.23649 13.3608 1.76467C13.5137 1.98426 13.7014 2.12141 13.9612 2.19947C14.5645 2.38039 15.1605 2.58539 15.7587 2.78455C16.1378 2.91003 16.1488 2.94577 15.9093 3.28063C15.5848 3.73512 15.2755 4.20202 14.924 4.63463C14.6613 4.95854 14.5674 5.31163 14.5703 5.71214C14.574 6.29576 14.5718 6.87866 14.5674 7.46228C14.5667 7.606 14.5783 7.77233 14.3353 7.75628L14.3367 7.75701Z" fill="#0C0A29"/>
</svg>
