<?xml version="1.0" encoding="UTF-8"?>
<svg id="Calque_3" data-name="Calque 3" xmlns="http://www.w3.org/2000/svg" viewBox="0 0 24.82 26.79">
  <defs>
    <style>
      .cls-1 {
        fill: #141227;
      }
    </style>
  </defs>
  <path class="cls-1" d="m8.84,19.79v-6.44c0-.52.01-.54.53-.54,2.04,0,4.07,0,6.11,0,.4,0,.52.12.52.52-.01,4.31,0,8.61,0,12.92,0,.52,0,.53-.53.53-2.04,0-4.07,0-6.11,0-.4,0-.52-.11-.52-.51.02-2.16,0-4.32,0-6.48h0Z"/>
  <path class="cls-1" d="m0,21.48C0,19.9.02,18.32,0,16.74c0-.39.1-.53.51-.53,2.05.02,4.1.02,6.15,0,.41,0,.51.15.51.53-.01,3.17-.01,6.35,0,9.52,0,.39-.11.52-.51.52-2.05-.02-4.1-.02-6.15,0-.41,0-.51-.14-.5-.52.02-1.59,0-3.19,0-4.78h0Z"/>
  <path class="cls-1" d="m24.82,22.6c0,1.24-.01,2.48,0,3.71,0,.36-.11.47-.47.47-2.08-.01-4.15-.01-6.23,0-.34,0-.46-.1-.46-.45.01-2.51,0-5.03,0-7.54,0-.32.12-.44.44-.44,2.09,0,4.18,0,6.27,0,.34,0,.46.11.46.46-.01,1.26,0,2.53,0,3.79h0Z"/>
  <path class="cls-1" d="m14.94,8.4c-.51-.16-1.05-.29-1.55-.51-.67-.3-1.29-.29-1.96,0-.45.2-.95.31-1.42.47-.28.1-.39,0-.39-.29,0-.63,0-1.26,0-1.9,0-.43-.1-.82-.39-1.17-.39-.48-.72-1-1.09-1.5-.2-.26-.17-.4.16-.5.68-.21,1.35-.44,2.02-.65.24-.07.42-.19.56-.4.42-.59.85-1.17,1.26-1.76.19-.28.33-.27.52,0,.4.57.82,1.13,1.22,1.7.17.24.37.39.65.47.65.2,1.3.42,1.95.63.41.14.42.17.16.54-.35.49-.69,1-1.07,1.47-.28.35-.39.73-.38,1.17,0,.63,0,1.26,0,1.9,0,.16.01.34-.25.32h0Z"/>
</svg>